<svg xmlns="http://www.w3.org/2000/svg" xmlns:xlink="http://www.w3.org/1999/xlink" width="17" height="29.97" viewBox="0 0 17 29.97">
  <defs>
    <style>
      .cls-1 {
        fill-rule: evenodd;
        filter: url(#filter);
      }
    </style>
    <filter id="filter" x="672" y="4701" width="17" height="29.97" filterUnits="userSpaceOnUse">
      <feFlood result="flood" flood-color="#d2d1d2"/>
      <feComposite result="composite" operator="in" in2="SourceGraphic"/>
      <feBlend result="blend" in2="SourceGraphic"/>
    </filter>
  </defs>
  <path id="стрелка" class="cls-1" d="M672.01,4715.97a2.086,2.086,0,0,1,.611-1.48l12.815-12.89a2.079,2.079,0,0,1,2.952,0,2.111,2.111,0,0,1,0,2.97l-11.34,11.4,11.339,11.4a2.109,2.109,0,0,1,0,2.97,2.078,2.078,0,0,1-2.951,0l-12.816-12.89A2.073,2.073,0,0,1,672.01,4715.97Z" transform="translate(-672 -4701)"/>
</svg>
